<?xml version="1.0" encoding="UTF-8" standalone="no"?>
<svg width="350px" height="165px" viewBox="0 0 350 165" version="1.1" xmlns="http://www.w3.org/2000/svg" xmlns:xlink="http://www.w3.org/1999/xlink" xmlns:sketch="http://www.bohemiancoding.com/sketch/ns">
    <!-- Generator: sketchtool 3.4 (375) - http://www.bohemiancoding.com/sketch -->
    <title>aj_logo</title>
    <desc>Created with sketchtool.</desc>
    <defs></defs>
    <g id="Page-3" stroke="none" stroke-width="1" fill="none" fill-rule="evenodd" sketch:type="MSPage">
        <g id="Logo" sketch:type="MSArtboardGroup" transform="translate(-44.000000, -39.000000)" fill="#000000">
            <g id="aj_logo" sketch:type="MSLayerGroup" transform="translate(44.600859, 39.950682)">
                <path d="M158.656655,29.325501 L158.656655,0.262393716 L170.284885,0.262393716 C176.095196,0.262393716 179.349072,4.27162517 179.349072,9.01953333 C179.349072,13.7699886 176.008967,17.7792201 170.284885,17.7792201 L162.257982,17.7792201 L162.257982,29.325501 L158.656655,29.325501 L158.656655,29.325501 Z M175.620937,9.01953333 C175.620937,5.75407289 173.277538,3.48709958 169.851204,3.48709958 L162.257982,3.48709958 L162.257982,14.5545142 L169.851204,14.5545142 C173.277538,14.5545142 175.620937,12.2900881 175.620937,9.01953333 L175.620937,9.01953333 Z" id="Fill-2" sketch:type="MSShapeGroup"></path>
                <path d="M182.902212,29.325501 L182.902212,8.28085663 L186.156088,8.28085663 L186.156088,11.6787694 C187.847697,9.45764502 190.277325,7.84529209 193.140634,7.84529209 L193.140634,11.1999032 C192.747532,11.1132997 192.359501,11.069998 191.837055,11.069998 C189.841108,11.069998 187.109679,12.7231055 186.156088,14.4220619 L186.156088,29.325501 L182.902212,29.325501" id="Fill-3" sketch:type="MSShapeGroup"></path>
                <path d="M194.913401,18.7802544 C194.913401,12.6798037 198.905295,7.75868862 205.281166,7.75868862 C211.659574,7.75868862 215.648932,12.6798037 215.648932,18.7802544 C215.648932,24.880705 211.659574,29.847669 205.281166,29.847669 C198.905295,29.847669 194.913401,24.880705 194.913401,18.7802544 L194.913401,18.7802544 Z M212.222598,18.7802544 C212.222598,14.5112125 209.749856,10.6777352 205.281166,10.6777352 C200.815013,10.6777352 198.29662,14.5112125 198.29662,18.7802544 C198.29662,23.0951452 200.815013,26.9286225 205.281166,26.9286225 C209.749856,26.9286225 212.222598,23.0951452 212.222598,18.7802544 L212.222598,18.7802544 Z" id="Fill-4" sketch:type="MSShapeGroup"></path>
                <path d="M235.035233,29.325501 L235.035233,26.1873986 C233.472967,28.3219196 230.913996,29.847669 227.964458,29.847669 C222.496526,29.847669 218.636512,25.6652306 218.636512,18.8235561 C218.636512,12.114334 222.453412,7.75868862 227.964458,7.75868862 C230.784652,7.75868862 233.343624,9.1519857 235.035233,11.4597136 L235.035233,0.262393716 L238.289109,0.262393716 L238.289109,29.325501 L235.035233,29.325501 L235.035233,29.325501 Z M235.035233,23.6173132 L235.035233,14.075648 C233.863534,12.2467863 231.347677,10.6777352 228.745591,10.6777352 C224.538124,10.6777352 222.019731,14.1622514 222.019731,18.8235561 C222.019731,23.487408 224.538124,26.9286225 228.745591,26.9286225 C231.347677,26.9286225 233.863534,25.4461748 235.035233,23.6173132 L235.035233,23.6173132 Z" id="Fill-5" sketch:type="MSShapeGroup"></path>
                <path d="M257.847868,29.325501 L257.847868,26.3606056 C256.242487,28.1920144 253.508522,29.847669 250.386526,29.847669 C246.004065,29.847669 243.706317,27.7131481 243.706317,23.1384469 L243.706317,8.28085663 L246.960192,8.28085663 L246.960192,22.1348655 C246.960192,25.8384376 248.82426,26.9286225 251.644454,26.9286225 C254.203426,26.9286225 256.633054,25.4461748 257.847868,23.7472184 L257.847868,8.28085663 L261.101743,8.28085663 L261.101743,29.325501 L257.847868,29.325501" id="Fill-6" sketch:type="MSShapeGroup"></path>
                <path d="M265.304138,18.7802544 C265.304138,12.5498985 269.51414,7.75868862 275.758132,7.75868862 C279.575032,7.75868862 281.832202,9.32773981 283.437583,11.4164119 L281.266642,13.4210276 C279.87937,11.5030153 278.101531,10.6777352 275.933126,10.6777352 C271.464437,10.6777352 268.687357,14.1189497 268.687357,18.7802544 C268.687357,23.4441062 271.464437,26.9286225 275.933126,26.9286225 C278.101531,26.9286225 279.87937,26.0574934 281.266642,24.1827829 L283.437583,26.1873986 C281.832202,28.2786178 279.575032,29.847669 275.758132,29.847669 C269.51414,29.847669 265.304138,25.053912 265.304138,18.7802544" id="Fill-7" sketch:type="MSShapeGroup"></path>
                <path d="M287.553748,24.9240068 L287.553748,11.1566014 L284.081764,11.1566014 L284.081764,8.28085663 L287.553748,8.28085663 L287.553748,2.52936703 L290.805087,2.52936703 L290.805087,8.28085663 L295.058205,8.28085663 L295.058205,11.1566014 L290.805087,11.1566014 L290.805087,24.2260847 C290.805087,25.7951358 291.499991,26.9286225 292.932914,26.9286225 C293.840854,26.9286225 294.710752,26.5363597 295.144433,26.0574934 L296.098024,28.4951265 C295.273777,29.2821993 294.104614,29.847669 292.194895,29.847669 C289.113478,29.847669 287.553748,28.0621092 287.553748,24.9240068" id="Fill-8" sketch:type="MSShapeGroup"></path>
                <path d="M156.921931,65.5614138 L159.047221,62.8155742 C160.956939,64.9526423 164.078935,66.957258 168.157058,66.957258 C173.320652,66.957258 174.969147,64.1681167 174.969147,61.9444451 C174.969147,54.4506974 157.832407,58.5898341 157.832407,48.2228887 C157.832407,43.4291316 162.085525,40.161124 167.766492,40.161124 C172.192067,40.161124 175.620937,41.6410246 178.048029,44.2136572 L175.879624,46.8703462 C173.711219,44.4734677 170.672915,43.3858299 167.507805,43.3858299 C164.035821,43.3858299 161.565615,45.2579932 161.565615,48.0038328 C161.565615,54.539848 178.699818,50.790427 178.699818,61.641333 C178.699818,65.8670731 175.836509,70.1794167 168.027715,70.1794167 C162.996001,70.1794167 159.308444,68.2639516 156.921931,65.5614138" id="Fill-9" sketch:type="MSShapeGroup"></path>
                <path d="M181.644284,59.1120021 C181.644284,53.0140986 185.633642,48.0904363 192.012049,48.0904363 C198.390457,48.0904363 202.379815,53.0140986 202.379815,59.1120021 C202.379815,65.2124527 198.390457,70.1794167 192.012049,70.1794167 C185.633642,70.1794167 181.644284,65.2124527 181.644284,59.1120021 L181.644284,59.1120021 Z M198.953481,59.1120021 C198.953481,54.8429602 196.480739,51.0094828 192.012049,51.0094828 C187.54336,51.0094828 185.027503,54.8429602 185.027503,59.1120021 C185.027503,63.4268929 187.54336,67.2603702 192.012049,67.2603702 C196.480739,67.2603702 198.953481,63.4268929 198.953481,59.1120021 L198.953481,59.1120021 Z" id="Fill-10" sketch:type="MSShapeGroup"></path>
                <path d="M206.582209,40.5966886 L209.836085,40.5966886 L209.836085,69.6572487 L206.582209,69.6572487 L206.582209,40.5966886 Z" id="Fill-11" sketch:type="MSShapeGroup"></path>
                <path d="M229.39738,69.6572487 L229.39738,66.6949004 C227.792,68.5237621 225.058034,70.1794167 221.936038,70.1794167 C217.553577,70.1794167 215.253293,68.0448958 215.253293,63.4701946 L215.253293,48.6126043 L218.509705,48.6126043 L218.509705,62.4691603 C218.509705,66.1727324 220.373772,67.2603702 223.193967,67.2603702 C225.752938,67.2603702 228.182566,65.7804696 229.39738,64.0815132 L229.39738,48.6126043 L232.651256,48.6126043 L232.651256,69.6572487 L229.39738,69.6572487" id="Fill-12" sketch:type="MSShapeGroup"></path>
                <path d="M238.717717,65.2557545 L238.717717,51.4883491 L235.248269,51.4883491 L235.248269,48.6126043 L238.717717,48.6126043 L238.717717,42.8611147 L241.971593,42.8611147 L241.971593,48.6126043 L246.222174,48.6126043 L246.222174,51.4883491 L241.971593,51.4883491 L241.971593,64.5603795 C241.971593,66.1268835 242.666497,67.2603702 244.099419,67.2603702 C245.00736,67.2603702 245.877258,66.8681074 246.310939,66.3892411 L247.26453,68.8294214 C246.440282,69.613947 245.268583,70.1794167 243.361401,70.1794167 C240.279983,70.1794167 238.717717,68.3938569 238.717717,65.2557545" id="Fill-13" sketch:type="MSShapeGroup"></path>
                <path d="M249.171712,43.4291316 C249.171712,42.2090415 250.168417,41.2080072 251.337581,41.2080072 C252.552395,41.2080072 253.551636,42.2090415 253.551636,43.4291316 C253.551636,44.6492218 252.552395,45.6069543 251.337581,45.6069543 C250.168417,45.6069543 249.171712,44.6492218 249.171712,43.4291316 L249.171712,43.4291316 Z M249.734736,48.6126043 L252.988612,48.6126043 L252.988612,69.6572487 L249.734736,69.6572487 L249.734736,48.6126043 Z" id="Fill-14" sketch:type="MSShapeGroup"></path>
                <path d="M257.193542,59.1120021 C257.193542,53.0140986 261.1829,48.0904363 267.561308,48.0904363 C273.939715,48.0904363 277.929073,53.0140986 277.929073,59.1120021 C277.929073,65.2124527 273.939715,70.1794167 267.561308,70.1794167 C261.1829,70.1794167 257.193542,65.2124527 257.193542,59.1120021 L257.193542,59.1120021 Z M274.500204,59.1120021 C274.500204,54.8429602 272.029997,51.0094828 267.561308,51.0094828 C263.092618,51.0094828 260.576761,54.8429602 260.576761,59.1120021 C260.576761,63.4268929 263.092618,67.2603702 267.561308,67.2603702 C272.029997,67.2603702 274.500204,63.4268929 274.500204,59.1120021 L274.500204,59.1120021 Z" id="Fill-15" sketch:type="MSShapeGroup"></path>
                <path d="M296.273019,69.6572487 L296.273019,55.8898434 C296.273019,52.1862712 294.406415,51.0094828 291.588757,51.0094828 C289.027249,51.0094828 286.600157,52.578534 285.382807,54.2774904 L285.382807,69.6572487 L282.128931,69.6572487 L282.128931,48.6126043 L285.382807,48.6126043 L285.382807,51.6641032 C286.858844,49.9218451 289.722153,48.0904363 292.846685,48.0904363 C297.22661,48.0904363 299.524358,50.3115607 299.524358,54.8862619 L299.524358,69.6572487 L296.273019,69.6572487" id="Fill-16" sketch:type="MSShapeGroup"></path>
                <path d="M303.120613,66.8681074 L304.812223,64.5170778 C306.199495,66.1268835 308.847231,67.5227278 311.71054,67.5227278 C314.921301,67.5227278 316.656025,65.9969783 316.656025,63.9057591 C316.656025,58.8088899 303.683638,61.9444451 303.683638,54.1475852 C303.683638,50.8795776 306.503832,48.0904363 311.492432,48.0904363 C315.050645,48.0904363 317.566502,49.4404317 319.260647,51.1419352 L317.741496,53.4063614 C316.483567,51.8806119 314.183283,50.7471253 311.492432,50.7471253 C308.629123,50.7471253 306.851284,52.1862712 306.851284,54.0584346 C306.851284,58.6789847 319.821136,55.6274858 319.821136,63.8191557 C319.821136,67.3469737 317.003477,70.1794167 311.578661,70.1794167 C308.154863,70.1794167 305.245904,69.1350807 303.120613,66.8681074" id="Fill-17" sketch:type="MSShapeGroup"></path>
                <path d="M33.2442266,152.475642 L33.2442266,113.641625 L48.7806581,113.641625 C56.5488738,113.641625 60.8958283,118.998305 60.8958283,125.343283 C60.8958283,131.690808 56.4322111,137.047488 48.7806581,137.047488 L38.0552959,137.047488 L38.0552959,152.475642 L33.2442266,152.475642 L33.2442266,152.475642 Z M55.909765,125.343283 C55.909765,120.974902 52.7801606,117.948875 48.1998806,117.948875 L38.0552959,117.948875 L38.0552959,132.737692 L48.1998806,132.737692 C52.7801606,132.737692 55.909765,129.709117 55.909765,125.343283 L55.909765,125.343283 Z" id="Fill-18" sketch:type="MSShapeGroup"></path>
                <path d="M65.6536386,152.475642 L65.6536386,124.354985 L70.0005931,124.354985 L70.0005931,128.894026 C72.2628355,125.926583 75.5065664,123.771685 79.333611,123.771685 L79.333611,128.254688 C78.8111649,128.137519 78.2887188,128.081481 77.5938147,128.081481 C74.9283251,128.081481 71.2762746,130.292417 70.0005931,132.561937 L70.0005931,152.475642 L65.6536386,152.475642" id="Fill-19" sketch:type="MSShapeGroup"></path>
                <path d="M81.7125161,138.384748 C81.7125161,130.233832 87.0460315,123.654515 95.5674827,123.654515 C104.088934,123.654515 109.422449,130.233832 109.422449,138.384748 C109.422449,146.535663 104.088934,153.173564 95.5674827,153.173564 C87.0460315,153.173564 81.7125161,146.535663 81.7125161,138.384748 L81.7125161,138.384748 Z M104.842169,138.384748 C104.842169,132.679107 101.537571,127.556766 95.5674827,127.556766 C89.5973946,127.556766 86.2344648,132.679107 86.2344648,138.384748 C86.2344648,144.148973 89.5973946,149.271314 95.5674827,149.271314 C101.537571,149.271314 104.842169,144.148973 104.842169,138.384748 L104.842169,138.384748 Z" id="Fill-20" sketch:type="MSShapeGroup"></path>
                <path d="M115.91752,146.594248 L115.91752,128.196103 L111.278908,128.196103 L111.278908,124.354985 L115.91752,124.354985 L115.91752,116.667653 L120.264474,116.667653 L120.264474,124.354985 L125.947978,124.354985 L125.947978,128.196103 L120.264474,128.196103 L120.264474,145.661987 C120.264474,147.7583 121.192704,149.271314 123.104958,149.271314 C124.322308,149.271314 125.481327,148.749146 126.062104,148.107261 L127.337786,151.370174 C126.237098,152.417058 124.672296,153.173564 122.120933,153.173564 C118.004768,153.173564 115.91752,150.786875 115.91752,146.594248" id="Fill-21" sketch:type="MSShapeGroup"></path>
                <path d="M129.019251,138.384748 C129.019251,130.233832 134.352766,123.654515 142.874217,123.654515 C151.395668,123.654515 156.729184,130.233832 156.729184,138.384748 C156.729184,146.535663 151.395668,153.173564 142.874217,153.173564 C134.352766,153.173564 129.019251,146.535663 129.019251,138.384748 L129.019251,138.384748 Z M152.148904,138.384748 C152.148904,132.679107 148.844305,127.556766 142.874217,127.556766 C136.904129,127.556766 133.541199,132.679107 133.541199,138.384748 C133.541199,144.148973 136.904129,149.271314 142.874217,149.271314 C148.844305,149.271314 152.148904,144.148973 152.148904,138.384748 L152.148904,138.384748 Z" id="Fill-22" sketch:type="MSShapeGroup"></path>
                <path d="M163.224254,146.594248 L163.224254,128.196103 L158.588179,128.196103 L158.588179,124.354985 L163.224254,124.354985 L163.224254,116.667653 L167.573745,116.667653 L167.573745,124.354985 L173.254712,124.354985 L173.254712,128.196103 L167.573745,128.196103 L167.573745,145.661987 C167.573745,147.7583 168.499438,149.271314 170.414229,149.271314 C171.631579,149.271314 172.790598,148.749146 173.368839,148.107261 L174.64452,151.370174 C173.543833,152.417058 171.979031,153.173564 169.427668,153.173564 C165.311502,153.173564 163.224254,150.786875 163.224254,146.594248" id="Fill-23" sketch:type="MSShapeGroup"></path>
                <path d="M179.458126,159.984673 C181.372916,159.984673 182.648598,159.345336 183.632622,157.014683 L185.489081,152.766019 L173.777158,124.354985 L178.474101,124.354985 L187.807119,147.409339 L197.081806,124.354985 L201.834543,124.354985 L187.807119,158.181283 C186.125654,162.256741 183.28517,163.828339 179.574789,163.886924 C178.646559,163.886924 177.19842,163.71117 176.386853,163.479378 L177.081757,159.518543 C177.720866,159.811466 178.763222,159.984673 179.458126,159.984673 Z" id="Fill-24" sketch:type="MSShapeGroup"></path>
                <path d="M209.257843,148.224431 L209.257843,163.189002 L204.910889,163.189002 L204.910889,124.354985 L209.257843,124.354985 L209.257843,128.545064 C211.28676,125.692244 214.766353,123.654515 218.707524,123.654515 C226.069956,123.654515 231.170146,129.245534 231.170146,138.384748 C231.170146,147.467924 226.069956,153.173564 218.707524,153.173564 C214.880479,153.173564 211.520086,151.370174 209.257843,148.224431 L209.257843,148.224431 Z M226.592402,138.384748 C226.592402,132.154392 223.229473,127.556766 217.606837,127.556766 C214.185575,127.556766 210.764314,129.594495 209.257843,132.039769 L209.257843,144.732273 C210.764314,147.177547 214.185575,149.271314 217.606837,149.271314 C223.229473,149.271314 226.592402,144.615103 226.592402,138.384748 L226.592402,138.384748 Z" id="Fill-25" sketch:type="MSShapeGroup"></path>
                <path d="M234.999727,138.384748 C234.999727,130.233832 240.797357,123.654515 248.798898,123.654515 C257.259482,123.654515 262.245545,130.292417 262.245545,138.733709 L262.245545,139.841724 L239.580007,139.841724 C239.927459,145.139819 243.637841,149.564237 249.66626,149.564237 C252.854196,149.564237 256.100463,148.283015 258.304374,146.013495 L260.391622,148.866315 C257.60947,151.660551 253.840757,153.173564 249.260477,153.173564 C240.972351,153.173564 234.999727,147.177547 234.999727,138.384748 L234.999727,138.384748 Z M248.740567,127.263843 C242.767943,127.263843 239.813332,132.330146 239.580007,136.637395 L257.956922,136.637395 C257.898591,132.444768 255.116438,127.263843 248.740567,127.263843 L248.740567,127.263843 Z" id="Fill-26" sketch:type="MSShapeGroup"></path>
                <path d="M265.380222,148.749146 L267.639928,145.603402 C269.496387,147.7583 273.029239,149.622822 276.856283,149.622822 C281.144907,149.622822 283.46548,147.585093 283.46548,144.790858 C283.46548,137.977202 266.130921,142.169829 266.130921,131.749393 C266.130921,127.381012 269.899634,123.654515 276.567163,123.654515 C281.319901,123.654515 284.682831,125.460452 286.942537,127.729973 L284.916156,130.758547 C283.234691,128.720819 280.160882,127.205258 276.567163,127.205258 C272.740118,127.205258 270.363749,129.128364 270.363749,131.632224 C270.363749,137.801448 287.695772,133.72599 287.695772,144.673688 C287.695772,149.388483 283.929595,153.173564 276.683825,153.173564 C272.103546,153.173564 268.220706,151.775173 265.380222,148.749146" id="Fill-27" sketch:type="MSShapeGroup"></path>
                <path d="M87.1246521,70.2074355 L81.0784796,54.9066392 L47.0560787,54.9066392 L41.0099062,70.2074355 L31.2761772,70.2074355 L58.7401041,1.25069219 L69.2930083,1.25069219 L96.8583811,70.2074355 L87.1246521,70.2074355 L87.1246521,70.2074355 Z M64.0685472,10.1402842 L49.5161405,47.2549675 L78.516972,47.2549675 L64.0685472,10.1402842 L64.0685472,10.1402842 Z" id="Fill-28" sketch:type="MSShapeGroup"></path>
                <path d="M0.167808226,90.8368927 L349.187172,90.8368927 L349.187172,97.2684743 L0.167808226,97.2684743 L0.167808226,90.8368927 Z" id="Fill-29" sketch:type="MSShapeGroup"></path>
                <path d="M108.435888,43.0597933 L104.951224,43.0597933 L104.951224,29.9877629 L93.2190113,29.9877629 L93.2190113,26.7987173 L104.951224,26.7987173 L104.951224,14.0934781 L108.435888,14.0934781 L108.435888,26.7987173 L120.168101,26.7987173 L120.168101,29.9877629 L108.435888,29.9877629 L108.435888,43.0597933 Z" id="Fill-30" sketch:type="MSShapeGroup"></path>
                <path d="M102.349138,62.2526516 L106.75696,55.7395609 C109.729323,59.3565295 113.726289,62.5608581 119.66848,62.5608581 C128.070732,62.5608581 133.401711,56.6692746 133.401711,48.0878892 L133.401711,0.0153190961 L141.905409,0.0153190961 L141.905409,48.1923228 C141.905409,63.1823654 132.374572,70.2125298 120.180781,70.2125298 C112.907114,70.2125298 107.063833,67.8360286 102.349138,62.2526516" id="Fill-31" sketch:type="MSShapeGroup"></path>
                <path d="M306.843676,132.396372 L306.843676,146.148494 L303.181481,146.148494 L303.181481,132.396372 L290.840593,132.396372 L290.840593,129.039214 L303.181481,129.039214 L303.181481,115.676807 L306.843676,115.676807 L306.843676,129.039214 L319.184563,129.039214 L319.184563,132.396372 L306.843676,132.396372" id="Fill-32" sketch:type="MSShapeGroup"></path>
            </g>
        </g>
    </g>
</svg>